<mxfile host="app.diagrams.net" modified="2023-11-14T21:05:28.430Z" agent="Mozilla/5.0 (Windows NT 10.0; Win64; x64) AppleWebKit/537.36 (KHTML, like Gecko) Chrome/119.0.0.0 Safari/537.36 Edg/119.0.0.0" etag="hSmqJsdRdzm07s-NELaw" version="22.1.0" type="google">
  <diagram name="Page-1" id="WOMISW4U0tKJkoKHVBkt">
    <mxGraphModel dx="2236" dy="785" grid="1" gridSize="10" guides="1" tooltips="1" connect="1" arrows="1" fold="1" page="1" pageScale="1" pageWidth="850" pageHeight="1100" math="0" shadow="0">
      <root>
        <mxCell id="0" />
        <mxCell id="1" parent="0" />
        <mxCell id="fYRVi1QwP9qfaBls7FZP-10" style="edgeStyle=orthogonalEdgeStyle;rounded=0;orthogonalLoop=1;jettySize=auto;html=1;entryX=1;entryY=0.75;entryDx=0;entryDy=0;endArrow=ERzeroToMany;endFill=0;startArrow=ERone;startFill=0;" parent="1" source="FTRnI5HDGNRaMvJ9vNC1-1" target="FTRnI5HDGNRaMvJ9vNC1-12" edge="1">
          <mxGeometry relative="1" as="geometry">
            <Array as="points">
              <mxPoint x="470" y="215" />
              <mxPoint x="470" y="365" />
              <mxPoint x="460" y="365" />
              <mxPoint x="460" y="553" />
            </Array>
          </mxGeometry>
        </mxCell>
        <mxCell id="fYRVi1QwP9qfaBls7FZP-11" style="edgeStyle=orthogonalEdgeStyle;rounded=0;orthogonalLoop=1;jettySize=auto;html=1;entryX=0.5;entryY=0;entryDx=0;entryDy=0;endArrow=ERzeroToMany;endFill=0;startArrow=ERone;startFill=0;" parent="1" source="FTRnI5HDGNRaMvJ9vNC1-1" target="FTRnI5HDGNRaMvJ9vNC1-3" edge="1">
          <mxGeometry relative="1" as="geometry" />
        </mxCell>
        <mxCell id="fYRVi1QwP9qfaBls7FZP-13" style="edgeStyle=orthogonalEdgeStyle;rounded=0;orthogonalLoop=1;jettySize=auto;html=1;entryX=0;entryY=0.5;entryDx=0;entryDy=0;endArrow=ERzeroToMany;endFill=0;startArrow=ERone;startFill=0;" parent="1" source="FTRnI5HDGNRaMvJ9vNC1-1" target="FTRnI5HDGNRaMvJ9vNC1-8" edge="1">
          <mxGeometry relative="1" as="geometry">
            <mxPoint x="-30" y="800" as="targetPoint" />
            <Array as="points">
              <mxPoint x="-60" y="215" />
              <mxPoint x="-60" y="795" />
            </Array>
          </mxGeometry>
        </mxCell>
        <mxCell id="fYRVi1QwP9qfaBls7FZP-16" style="edgeStyle=orthogonalEdgeStyle;rounded=0;orthogonalLoop=1;jettySize=auto;html=1;endArrow=ERzeroToMany;endFill=0;startArrow=ERone;startFill=0;" parent="1" source="FTRnI5HDGNRaMvJ9vNC1-1" target="FTRnI5HDGNRaMvJ9vNC1-4" edge="1">
          <mxGeometry relative="1" as="geometry">
            <Array as="points">
              <mxPoint x="395" y="20" />
              <mxPoint x="810" y="20" />
              <mxPoint x="810" y="675" />
            </Array>
          </mxGeometry>
        </mxCell>
        <mxCell id="FTRnI5HDGNRaMvJ9vNC1-1" value="User&lt;br&gt;UserID&lt;br&gt;Username&lt;br&gt;Email&lt;br&gt;Password" style="html=1;whiteSpace=wrap;" parent="1" vertex="1">
          <mxGeometry x="340" y="170" width="110" height="90" as="geometry" />
        </mxCell>
        <mxCell id="fYRVi1QwP9qfaBls7FZP-7" style="edgeStyle=orthogonalEdgeStyle;rounded=0;orthogonalLoop=1;jettySize=auto;html=1;entryX=0;entryY=0.5;entryDx=0;entryDy=0;startArrow=ERzeroToMany;startFill=0;endArrow=ERone;endFill=0;" parent="1" source="FTRnI5HDGNRaMvJ9vNC1-2" target="FTRnI5HDGNRaMvJ9vNC1-7" edge="1">
          <mxGeometry relative="1" as="geometry" />
        </mxCell>
        <mxCell id="FTRnI5HDGNRaMvJ9vNC1-2" value="Match&lt;br&gt;MatchID&lt;br&gt;AdoptiveParentID&lt;br&gt;ChildID&lt;br&gt;MatchDate&lt;br&gt;MatchStatus" style="html=1;whiteSpace=wrap;" parent="1" vertex="1">
          <mxGeometry x="50" y="580" width="110" height="90" as="geometry" />
        </mxCell>
        <mxCell id="FTRnI5HDGNRaMvJ9vNC1-3" value="Document&lt;br&gt;DocumentID&lt;br&gt;DocumentType&lt;br&gt;FileName&lt;br&gt;UploadDate" style="html=1;whiteSpace=wrap;" parent="1" vertex="1">
          <mxGeometry x="480" y="430" width="110" height="90" as="geometry" />
        </mxCell>
        <mxCell id="FTRnI5HDGNRaMvJ9vNC1-4" value="Notification&lt;br&gt;NotificationID&lt;br&gt;UserID&lt;br&gt;Notification Type&lt;br&gt;Message&lt;br&gt;Timestamp" style="html=1;whiteSpace=wrap;" parent="1" vertex="1">
          <mxGeometry x="600" y="630" width="110" height="90" as="geometry" />
        </mxCell>
        <mxCell id="fYRVi1QwP9qfaBls7FZP-12" style="edgeStyle=orthogonalEdgeStyle;rounded=0;orthogonalLoop=1;jettySize=auto;html=1;endArrow=ERzeroToMany;endFill=0;startArrow=ERone;startFill=0;" parent="1" source="FTRnI5HDGNRaMvJ9vNC1-6" target="FTRnI5HDGNRaMvJ9vNC1-11" edge="1">
          <mxGeometry relative="1" as="geometry">
            <Array as="points">
              <mxPoint x="145" y="60" />
              <mxPoint x="730" y="60" />
            </Array>
          </mxGeometry>
        </mxCell>
        <mxCell id="FTRnI5HDGNRaMvJ9vNC1-6" value="AdoptiveParent&lt;br&gt;ParentID&lt;br&gt;FullName&lt;br&gt;DOB&lt;br&gt;ContaactNo&lt;br&gt;Address&lt;br&gt;AdoptionPrefrences" style="html=1;whiteSpace=wrap;" parent="1" vertex="1">
          <mxGeometry x="90" y="290" width="110" height="120" as="geometry" />
        </mxCell>
        <mxCell id="FTRnI5HDGNRaMvJ9vNC1-7" value="Child&lt;br&gt;FullName&lt;br&gt;DOB&lt;br&gt;Gender&lt;br&gt;HealthStatus&lt;br&gt;AdoptionStatus&lt;br&gt;Ethinicity&lt;br&gt;SpecialNeeds" style="html=1;whiteSpace=wrap;" parent="1" vertex="1">
          <mxGeometry x="340" y="305" width="110" height="120" as="geometry" />
        </mxCell>
        <mxCell id="FTRnI5HDGNRaMvJ9vNC1-8" value="ForumPost&lt;br&gt;PostID&lt;br&gt;UserID&lt;br&gt;PostContent&lt;br&gt;PostDate" style="html=1;whiteSpace=wrap;" parent="1" vertex="1">
          <mxGeometry x="90" y="750" width="110" height="90" as="geometry" />
        </mxCell>
        <mxCell id="FTRnI5HDGNRaMvJ9vNC1-9" value="CulturalEducation&lt;br&gt;EducationID&lt;br&gt;Topic&lt;br&gt;Description&lt;br&gt;ResourceLink" style="html=1;whiteSpace=wrap;" parent="1" vertex="1">
          <mxGeometry x="350" y="630" width="110" height="100" as="geometry" />
        </mxCell>
        <mxCell id="FTRnI5HDGNRaMvJ9vNC1-11" value="PostAdoptionSupport&lt;br&gt;SupportID&lt;br&gt;AdoptiveParentID&lt;br&gt;SupportType&lt;br&gt;SupportDate&lt;br&gt;SupportContent" style="html=1;whiteSpace=wrap;" parent="1" vertex="1">
          <mxGeometry x="660" y="470" width="140" height="100" as="geometry" />
        </mxCell>
        <mxCell id="FTRnI5HDGNRaMvJ9vNC1-12" value="Communication&lt;br&gt;CommunicationID&lt;br&gt;SenderID&lt;br&gt;ReceiverID&lt;br&gt;MessageType&lt;br&gt;MessageContent&lt;br&gt;Timestamp" style="html=1;whiteSpace=wrap;" parent="1" vertex="1">
          <mxGeometry x="280" y="470" width="110" height="110" as="geometry" />
        </mxCell>
        <mxCell id="fYRVi1QwP9qfaBls7FZP-4" style="edgeStyle=orthogonalEdgeStyle;rounded=0;orthogonalLoop=1;jettySize=auto;html=1;entryX=1;entryY=0.25;entryDx=0;entryDy=0;endArrow=ERone;endFill=0;startArrow=ERmandOne;startFill=0;" parent="1" source="FTRnI5HDGNRaMvJ9vNC1-15" target="FTRnI5HDGNRaMvJ9vNC1-1" edge="1">
          <mxGeometry relative="1" as="geometry" />
        </mxCell>
        <mxCell id="fYRVi1QwP9qfaBls7FZP-8" style="edgeStyle=orthogonalEdgeStyle;rounded=0;orthogonalLoop=1;jettySize=auto;html=1;entryX=0;entryY=0.25;entryDx=0;entryDy=0;startArrow=ERone;startFill=0;endArrow=ERzeroToMany;endFill=0;" parent="1" source="FTRnI5HDGNRaMvJ9vNC1-15" target="FTRnI5HDGNRaMvJ9vNC1-2" edge="1">
          <mxGeometry relative="1" as="geometry">
            <Array as="points">
              <mxPoint x="645" y="110" />
              <mxPoint x="30" y="110" />
              <mxPoint x="30" y="603" />
            </Array>
          </mxGeometry>
        </mxCell>
        <mxCell id="FTRnI5HDGNRaMvJ9vNC1-15" value="AdoptiveAgency&lt;br&gt;AgencyID&lt;br&gt;ContactPerson&lt;br&gt;Address&lt;br&gt;ContactNumber&lt;br&gt;Website" style="html=1;whiteSpace=wrap;" parent="1" vertex="1">
          <mxGeometry x="590" y="280" width="110" height="110" as="geometry" />
        </mxCell>
        <mxCell id="fYRVi1QwP9qfaBls7FZP-3" value="" style="edgeStyle=entityRelationEdgeStyle;fontSize=12;html=1;endArrow=ERmandOne;startArrow=ERmandOne;rounded=0;entryX=-0.04;entryY=0.59;entryDx=0;entryDy=0;entryPerimeter=0;exitX=1;exitY=0.25;exitDx=0;exitDy=0;exitPerimeter=0;" parent="1" source="FTRnI5HDGNRaMvJ9vNC1-6" target="FTRnI5HDGNRaMvJ9vNC1-1" edge="1">
          <mxGeometry width="100" height="100" relative="1" as="geometry">
            <mxPoint x="210" y="320" as="sourcePoint" />
            <mxPoint x="310" y="220" as="targetPoint" />
          </mxGeometry>
        </mxCell>
        <mxCell id="fYRVi1QwP9qfaBls7FZP-6" style="edgeStyle=orthogonalEdgeStyle;rounded=0;orthogonalLoop=1;jettySize=auto;html=1;entryX=0.136;entryY=0.992;entryDx=0;entryDy=0;entryPerimeter=0;endArrow=ERmandOne;endFill=0;startArrow=ERzeroToMany;startFill=0;" parent="1" source="FTRnI5HDGNRaMvJ9vNC1-2" target="FTRnI5HDGNRaMvJ9vNC1-6" edge="1">
          <mxGeometry relative="1" as="geometry" />
        </mxCell>
        <mxCell id="fYRVi1QwP9qfaBls7FZP-14" style="edgeStyle=orthogonalEdgeStyle;rounded=0;orthogonalLoop=1;jettySize=auto;html=1;entryX=0.909;entryY=1;entryDx=0;entryDy=0;entryPerimeter=0;endArrow=ERzeroToMany;endFill=0;startArrow=ERone;startFill=0;" parent="1" source="FTRnI5HDGNRaMvJ9vNC1-9" target="FTRnI5HDGNRaMvJ9vNC1-6" edge="1">
          <mxGeometry relative="1" as="geometry" />
        </mxCell>
      </root>
    </mxGraphModel>
  </diagram>
</mxfile>
